<svg height='100px' width='100px'  fill="#000000" xmlns="http://www.w3.org/2000/svg" xmlns:xlink="http://www.w3.org/1999/xlink" version="1.1" x="0px" y="0px" viewBox="0 0 100 100" style="enable-background:new 0 0 100 100;" xml:space="preserve"><path d="M35,95c0.4,0,0.8,0,1.2,0c5.9-0.4,10.9-3.8,13.7-8.7c2.9,4.9,7.9,8.3,13.7,8.7c0.4,0,0.8,0,1.2,0c4.6,0,9.1-1.8,12.4-5.1  c3.6-3.6,5.4-8.6,5.1-13.6C81.8,67.1,74,60,64.6,60h-2.1v-5c0-1.9-0.7-3.6-1.9-5c1.2-1.4,1.9-3.1,1.9-5V17.5C62.5,10.6,56.9,5,50,5  s-12.5,5.6-12.5,12.5V45c0,1.9,0.7,3.6,1.9,5c-1.2,1.4-1.9,3.1-1.9,5v5h-2.1c-9.4,0-17.2,7.1-17.9,16.2c-0.4,5.1,1.5,10,5.1,13.6  C25.9,93.2,30.4,95,35,95z M52.5,10.4c2.9,1,5,3.8,5,7.1V45c0,0.5-0.2,1-0.5,1.4l-4.5-4.5V10.4z M42.5,17.5c0-3.3,2.1-6,5-7.1v31.5  v1c0,0.7,0.3,1.3,0.7,1.8l8.5,8.5c0.5,0.5,0.7,1.1,0.7,1.8v7.5c0,1.4,1.1,2.5,2.5,2.5h4.6c6.8,0,12.4,5.1,12.9,11.6  c0.3,3.6-1.1,7.2-3.6,9.7c-2.6,2.6-6.1,3.9-9.7,3.6c-6.5-0.5-11.6-6.1-11.6-12.9v0v-19v-1c0-0.7-0.3-1.3-0.7-1.8l-8.5-8.5  c-0.5-0.5-0.7-1.1-0.7-1.8V17.5z M22.5,76.6C23,70.1,28.6,65,35.4,65H40c1.4,0,2.5-1.1,2.5-2.5V55c0-0.5,0.2-1,0.5-1.4l4.5,4.5v19  c0,6.8-5.1,12.4-11.6,12.9c-3.6,0.3-7.2-1.1-9.7-3.6S22.3,80.2,22.5,76.6z"></path><path d="M35,85c4.1,0,7.5-3.4,7.5-7.5v-5c0-1.4-1.1-2.5-2.5-2.5h-5c-4.1,0-7.5,3.4-7.5,7.5S30.9,85,35,85z M35,75h2.5v2.5  c0,1.4-1.1,2.5-2.5,2.5s-2.5-1.1-2.5-2.5S33.6,75,35,75z"></path><path d="M65,85c4.1,0,7.5-3.4,7.5-7.5S69.1,70,65,70h-5c-1.4,0-2.5,1.1-2.5,2.5v5C57.5,81.6,60.9,85,65,85z M62.5,75H65  c1.4,0,2.5,1.1,2.5,2.5S66.4,80,65,80s-2.5-1.1-2.5-2.5V75z"></path></svg>