<svg height='100px' width='100px'  fill="#000000" xmlns="http://www.w3.org/2000/svg" xmlns:xlink="http://www.w3.org/1999/xlink" xml:space="preserve" version="1.1" style="shape-rendering:geometricPrecision;text-rendering:geometricPrecision;image-rendering:optimizeQuality;" viewBox="0 0 333 333" x="0px" y="0px" fill-rule="evenodd" clip-rule="evenodd"><defs><style type="text/css">
   
    .fil0 {fill:#000000}
   
  </style></defs><g><path class="fil0" d="M77 8l180 0c17,0 31,14 31,32l0 254c0,17 -14,31 -31,31l-180 0c-18,0 -32,-14 -32,-31l0 -254c0,-18 14,-32 32,-32zm29 68l121 0c18,0 18,28 0,28l-121 0c-18,0 -18,-28 0,-28zm0 154l121 0c18,0 18,27 0,27l-121 0c-18,0 -18,-27 0,-27zm0 -77l121 0c18,0 18,27 0,27l-121 0c-18,0 -18,-27 0,-27zm-29 -118l180 0c2,0 5,2 5,5l0 254c0,2 -3,5 -5,5l-180 0c-3,0 -5,-3 -5,-5l0 -254c0,-3 2,-5 5,-5z"></path></g></svg>