<svg height='100px' width='100px'  fill="#000000" xmlns="http://www.w3.org/2000/svg" xmlns:xlink="http://www.w3.org/1999/xlink" version="1.1" x="0px" y="0px" viewBox="0 0 100 100" enable-background="new 0 0 100 100" xml:space="preserve"><path d="M11.1,66.3l41.4,0l27.2,24c0.4,0.3,0.8,0.5,1.3,0.5c0.3,0,0.7-0.1,1-0.3c0.7-0.4,1.1-1.3,1-2.1l-3.9-22.2h9.8  c3.3,0,6-2.7,6-6v-45c0-3.3-2.7-6-6-6H11.1c-3.3,0-6,2.7-6,6v45C5.1,63.6,7.8,66.3,11.1,66.3z M9.1,15.2c0-1.1,0.9-2,2-2h77.7  c1.1,0,2,0.9,2,2v45c0,1.1-0.9,2-2,2H76.7c-0.6,0-1.2,0.3-1.5,0.7c-0.4,0.5-0.5,1.1-0.4,1.6L78,83.5L55.1,63.3c-0.7-0.6-1.7-1-2.6-1  H11.1c-1.1,0-2-0.9-2-2V15.2z"></path></svg>